# xmcd
#
# Track frame offsets: 
#        150
#        31423
#        33425
#        48128
#        69660
#        73495
#        90303
#        107330
#        109885
#        137833
#        155318
#        172420
#        188038
#        197158
#        227608
#        270140
#
# Disc length: 4087 seconds
#
# Revision: 4
# Processed by: cddbd v1.5.2PL0 Copyright (c) Steve Scherf et al.
# Submitted via: ExactAudioCopyFreeDBPlugin 1.0
#
DISCID=d80ff510
DTITLE=Curtis Mayfield - Curtis - Live!
DYEAR=1971
DGENRE=Soul
TTITLE0=Mighty Mighty (Spade and Whitey)
TTITLE1=Rap 01
TTITLE2=I Plan to Stay a Believer
TTITLE3=We're a Winner
TTITLE4=Rap 02
TTITLE5=We've Only Just Begun
TTITLE6=People Get Ready
TTITLE7=Rap 03
TTITLE8=Stare and Stare
TTITLE9=Check Out Your Mind
TTITLE10=Gypsy Woman
TTITLE11=The Makings of You
TTITLE12=Rap 04
TTITLE13=We the People Who Are Darker Than Blue
TTITLE14=(Don't Worry) If There's a Hell Below We're All Going To Go
TTITLE15=Stone Junkie
EXTD=
EXTT0=
EXTT1=
EXTT2=
EXTT3=
EXTT4=
EXTT5=
EXTT6=
EXTT7=
EXTT8=
EXTT9=
EXTT10=
EXTT11=
EXTT12=
EXTT13=
EXTT14=
EXTT15=
PLAYORDER=
